<mxfile host="app.diagrams.net" modified="2020-08-14T14:21:58.077Z" agent="5.0 (Windows NT 10.0; Win64; x64) AppleWebKit/537.36 (KHTML, like Gecko) Chrome/84.0.4147.89 Safari/537.36" etag="YyK84KFAOd3udJpnsFzM" version="13.4.8" type="github">
  <diagram id="cLAyD67rFbaRIYO3z7db" name="Page-1">
    <mxGraphModel dx="1406" dy="732" grid="1" gridSize="10" guides="1" tooltips="1" connect="1" arrows="1" fold="1" page="1" pageScale="1" pageWidth="827" pageHeight="1169" math="0" shadow="0">
      <root>
        <mxCell id="0" />
        <mxCell id="1" parent="0" />
        <mxCell id="CoMfEivVBpqj76ispVfh-1" value="Order" style="rounded=0;whiteSpace=wrap;html=1;" vertex="1" parent="1">
          <mxGeometry x="270" y="80" width="120" height="60" as="geometry" />
        </mxCell>
        <mxCell id="CoMfEivVBpqj76ispVfh-2" value="OAUTH2/RBAC" style="rounded=0;whiteSpace=wrap;html=1;" vertex="1" parent="1">
          <mxGeometry x="430" y="80" width="120" height="60" as="geometry" />
        </mxCell>
        <mxCell id="CoMfEivVBpqj76ispVfh-3" value="AP GAteWAY" style="rounded=0;whiteSpace=wrap;html=1;" vertex="1" parent="1">
          <mxGeometry x="80" y="60" width="80" height="550" as="geometry" />
        </mxCell>
        <mxCell id="CoMfEivVBpqj76ispVfh-4" value="WebView" style="rounded=0;whiteSpace=wrap;html=1;" vertex="1" parent="1">
          <mxGeometry x="270" y="220" width="120" height="60" as="geometry" />
        </mxCell>
        <mxCell id="CoMfEivVBpqj76ispVfh-5" value="" style="rounded=0;whiteSpace=wrap;html=1;" vertex="1" parent="1">
          <mxGeometry x="450" y="220" width="120" height="60" as="geometry" />
        </mxCell>
        <mxCell id="CoMfEivVBpqj76ispVfh-6" value="Kafka Message Bus&lt;br&gt;&lt;br&gt;AVro scema" style="rounded=0;whiteSpace=wrap;html=1;" vertex="1" parent="1">
          <mxGeometry x="620" y="60" width="80" height="550" as="geometry" />
        </mxCell>
        <mxCell id="CoMfEivVBpqj76ispVfh-8" value="" style="shape=cylinder;whiteSpace=wrap;html=1;boundedLbl=1;backgroundOutline=1;" vertex="1" parent="1">
          <mxGeometry x="510" y="350" width="60" height="80" as="geometry" />
        </mxCell>
        <mxCell id="CoMfEivVBpqj76ispVfh-10" value="" style="shape=cylinder;whiteSpace=wrap;html=1;boundedLbl=1;backgroundOutline=1;" vertex="1" parent="1">
          <mxGeometry x="354" y="350" width="60" height="80" as="geometry" />
        </mxCell>
        <mxCell id="CoMfEivVBpqj76ispVfh-11" value="" style="shape=cylinder;whiteSpace=wrap;html=1;boundedLbl=1;backgroundOutline=1;" vertex="1" parent="1">
          <mxGeometry x="430" y="350" width="60" height="80" as="geometry" />
        </mxCell>
        <mxCell id="CoMfEivVBpqj76ispVfh-13" value="" style="rounded=0;whiteSpace=wrap;html=1;" vertex="1" parent="1">
          <mxGeometry x="350" y="340" width="230" height="10" as="geometry" />
        </mxCell>
        <mxCell id="CoMfEivVBpqj76ispVfh-14" value="" style="endArrow=classic;startArrow=classic;html=1;" edge="1" parent="1">
          <mxGeometry width="50" height="50" relative="1" as="geometry">
            <mxPoint x="390" y="390" as="sourcePoint" />
            <mxPoint x="440" y="340" as="targetPoint" />
          </mxGeometry>
        </mxCell>
      </root>
    </mxGraphModel>
  </diagram>
</mxfile>
